<svg xmlns="http://www.w3.org/2000/svg" aria-hidden="true" style="position:absolute;width:0;height:0;overflow:hidden">
  <defs>
  <symbol id="logo" viewBox="0 0 346 32">
      <path fill="#fbfbfb" d="M29.082.314h-4.01c-1.237 0-2.24.983-2.24 2.195v3.929c0 1.212 1.003 2.195 2.24 2.195h4.01c1.237 0 2.24-.983 2.24-2.195V2.509c0-1.212-1.003-2.195-2.24-2.195zM6.73 23.04H2.412C1.08 23.04 0 24.023 0 25.235v3.929c0 1.212 1.08 2.195 2.412 2.195H6.73c1.332 0 2.412-.983 2.412-2.195v-3.929c0-1.212-1.08-2.195-2.412-2.195zM6.25 11.582H2.241c-1.237 0-2.24.983-2.24 2.195v3.929c0 1.212 1.003 2.195 2.24 2.195H6.25c1.237 0 2.24-.983 2.24-2.195v-3.929c0-1.212-1.003-2.195-2.24-2.195zM17.766 22.978h-4.009c-1.237 0-2.24.983-2.24 2.195v3.929c0 1.212 1.003 2.196 2.241 2.196h4.009c1.237 0 2.24-.983 2.24-2.196v-3.929c0-1.212-1.003-2.195-2.24-2.195zM6.25.086H2.241c-1.237 0-2.24.983-2.24 2.195V6.21c0 1.212 1.003 2.195 2.24 2.195H6.25c1.237 0 2.24-.983 2.24-2.195V2.281C8.49 1.069 7.487.086 6.25.086zM18.076 11.697h-4.009c-1.237 0-2.24.983-2.24 2.195v3.929c0 1.212 1.003 2.195 2.24 2.195h4.009c1.237 0 2.24-.983 2.24-2.195v-3.929c0-1.212-1.003-2.195-2.24-2.195zM29.333 22.978h-4.009c-1.237 0-2.24.983-2.24 2.195v3.929c0 1.212 1.003 2.196 2.24 2.196h4.009c1.237 0 2.24-.983 2.24-2.196v-3.929c0-1.212-1.003-2.195-2.24-2.195zM17.591.224h-4.009c-1.237 0-2.24.983-2.24 2.195v3.929c0 1.212 1.003 2.195 2.24 2.195h4.009c1.237 0 2.24-.984 2.24-2.196V2.418c0-1.212-1.003-2.195-2.24-2.195zM29.044 11.926h-4.009c-1.237 0-2.24.983-2.24 2.195v3.929c0 1.212 1.003 2.195 2.24 2.195h4.009c1.237 0 2.24-.983 2.24-2.195v-3.929c0-1.212-1.003-2.195-2.24-2.195zM59.112 30.223c-7.748 0-12.89-5.227-12.89-13.369 0-7.965 5.068-13.298 12.706-13.298 6.427 0 10.943 3.662 11.604 9.173h-5.325c-.514-3.164-2.975-4.942-6.28-4.942-4.627 0-7.381 3.627-7.381 9.067 0 5.973 3.085 9.138 7.565 9.138 3.893 0 6.39-2.133 6.647-5.333v-.356h-7.161v-3.982h12.118v3.271c-.22 6.364-4.847 10.631-11.604 10.631zM73.926 29.867V3.911h12.89c6.573 0 9.181 3.093 9.181 7.573 0 4.018-2.938 5.938-6.353 6.4v.107c2.203.533 3.195 1.707 4.113 4.018 1.175 2.916 1.359 6.4 2.864 7.644v.213h-5.876c-1.248-1.209-1.542-5.013-2.203-7.324-.661-2.382-2.093-2.667-4.774-2.667h-4.7v9.991h-5.141zm5.141-14.115h7.198c3.011 0 4.407-1.707 4.407-3.911 0-2.418-1.726-3.804-4.407-3.804h-7.198v7.716zM99.411 29.867V3.911h18.324v4.124h-13.183v6.187h11.898v4.124h-11.898v7.289h13.367v4.231H99.411zM121.489 29.867V3.911h18.325v4.124h-13.183v6.187h11.898v4.124h-11.898v7.289h13.367v4.231H121.49zM143.567 29.867V3.911h6.243l8.887 14.329c2.717 4.338 3.049 5.76 3.049 5.76h.109l-.072-20.089h5.141v25.956h-6.28l-9.217-14.756c-2.093-3.342-2.644-5.369-2.644-5.369h-.073v20.124h-5.141zM170.79 29.867v-5.262h5.362v5.262h-5.362zM180.013 29.867V3.911h5.141v10.382h12.302V3.911h5.141v25.956h-5.141V18.418h-12.302v11.449h-5.141zM204.795 29.867l10.282-25.956h5.582l10.429 25.956h-5.509l-2.166-5.973h-11.126l-2.166 5.973h-5.325zm8.96-10.097h8.189l-2.387-6.4c-1.653-4.729-1.69-5.582-1.69-5.582h-.072s0 .853-1.653 5.582l-2.387 6.4zM233.278 29.867V3.911h12.89c6.573 0 9.181 3.093 9.181 7.573 0 4.018-2.938 5.938-6.354 6.4v.107c2.203.533 3.195 1.707 4.114 4.018 1.174 2.916 1.358 6.4 2.864 7.644v.213h-5.875c-1.25-1.209-1.542-5.013-2.205-7.324-.661-2.382-2.093-2.667-4.773-2.667h-4.701v9.991h-5.141zm5.141-14.115h7.197c3.011 0 4.408-1.707 4.408-3.911 0-2.418-1.726-3.804-4.408-3.804h-7.197v7.716zM264.213 29.867l-9.842-25.956h5.509s5.325 14.542 5.875 16.32c.882 2.844 1.286 4.302 1.286 4.302h.074c-.037 0 .366-1.458 1.285-4.302.587-1.778 5.691-16.32 5.691-16.32h5.325l-9.474 25.956h-5.73zM281.522 29.867V3.911h18.325v4.124h-13.182v6.187h11.898v4.124h-11.898v7.289h13.366v4.231h-18.509zM312.794 30.223c-6.83 0-10.942-3.591-10.942-8.924h5.875c-.074 3.022 1.982 4.693 5.067 4.693 3.269 0 4.811-1.244 4.811-3.093s-1.322-2.631-6.022-3.876c-4.298-1.138-8.997-2.489-8.997-7.822 0-4.231 3.819-7.644 9.842-7.644 6.205 0 10.171 3.378 10.171 8.142h-5.691c-.037-2.524-1.8-3.911-4.48-3.911-2.608 0-4.334 1.28-4.334 2.987 0 2.027 1.432 2.667 5.179 3.698 5.544 1.493 10.024 2.098 10.024 7.893 0 4.658-4.37 7.858-10.502 7.858zM331.669 29.867V8.143h-8.117V3.912h21.336v4.231h-8.078v21.724h-5.141z" style="fill:var(--color1, #fbfbfb)"/>
    </symbol>
    <symbol id="logo-icon" viewBox="0 0 32 32">
      <path fill="#fbfbfb" d="M29.082.314h-4.01c-1.237 0-2.24.983-2.24 2.195v3.929c0 1.212 1.003 2.195 2.24 2.195h4.01c1.237 0 2.24-.983 2.24-2.195V2.509c0-1.212-1.003-2.195-2.24-2.195zM6.73 23.04H2.412C1.08 23.04 0 24.023 0 25.235v3.929c0 1.212 1.08 2.195 2.412 2.195H6.73c1.332 0 2.412-.983 2.412-2.195v-3.929c0-1.212-1.08-2.195-2.412-2.195zM6.25 11.582H2.241c-1.237 0-2.24.983-2.24 2.195v3.929c0 1.212 1.003 2.195 2.24 2.195H6.25c1.237 0 2.24-.983 2.24-2.195v-3.929c0-1.212-1.003-2.195-2.24-2.195zM17.766 22.978h-4.009c-1.237 0-2.24.983-2.24 2.195v3.929c0 1.212 1.003 2.196 2.241 2.196h4.009c1.237 0 2.24-.983 2.24-2.196v-3.929c0-1.212-1.003-2.195-2.24-2.195zM6.25.086H2.241c-1.237 0-2.24.983-2.24 2.195V6.21c0 1.212 1.003 2.195 2.24 2.195H6.25c1.237 0 2.24-.983 2.24-2.195V2.281C8.49 1.069 7.487.086 6.25.086zM18.076 11.697h-4.009c-1.237 0-2.24.983-2.24 2.195v3.929c0 1.212 1.003 2.195 2.24 2.195h4.009c1.237 0 2.24-.983 2.24-2.195v-3.929c0-1.212-1.003-2.195-2.24-2.195zM29.333 22.978h-4.009c-1.237 0-2.24.983-2.24 2.195v3.929c0 1.212 1.003 2.196 2.24 2.196h4.009c1.237 0 2.24-.983 2.24-2.196v-3.929c0-1.212-1.003-2.195-2.24-2.195zM17.591.224h-4.009c-1.237 0-2.24.983-2.24 2.195v3.929c0 1.212 1.003 2.195 2.24 2.195h4.009c1.237 0 2.24-.984 2.24-2.196V2.418c0-1.212-1.003-2.195-2.24-2.195zM29.044 11.926h-4.009c-1.237 0-2.24.983-2.24 2.195v3.929c0 1.212 1.003 2.195 2.24 2.195h4.009c1.237 0 2.24-.983 2.24-2.195v-3.929c0-1.212-1.003-2.195-2.24-2.195z" style="fill:var(--color1, #fbfbfb)"/>
    </symbol>
    <symbol id="logo-text" viewBox="0 0 354 32">
      <path fill="#fbfbfb" d="M16.837 31.792c-9.116 0-15.164-6.149-15.164-15.728C1.673 6.694 7.635.42 16.621.42c7.561 0 12.874 4.309 13.652 10.792h-6.264c-.605-3.723-3.499-5.814-7.388-5.814-5.444 0-8.684 4.267-8.684 10.667 0 7.027 3.629 10.75 8.9 10.75 4.58 0 7.517-2.51 7.82-6.275v-.418h-8.425v-4.685h14.257v3.848c-.259 7.488-5.703 12.507-13.652 12.507zM34.266 31.373V.837H49.43c7.733 0 10.801 3.639 10.801 8.91 0 4.727-3.456 6.986-7.474 7.529v.125c2.592.627 3.759 2.008 4.839 4.727 1.382 3.43 1.599 7.529 3.37 8.993v.251h-6.913c-1.469-1.422-1.814-5.898-2.592-8.617-.778-2.803-2.462-3.137-5.616-3.137h-5.53v11.754h-6.048zm6.049-16.606h8.468c3.543 0 5.184-2.008 5.184-4.601 0-2.844-2.03-4.476-5.184-4.476h-8.468v9.077zM64.248 31.373V.837h21.558v4.852h-15.51v7.278h13.998v4.852H70.296v8.575h15.726v4.978H64.248zM90.222 31.373V.837h21.558v4.852H96.27v7.278h13.998v4.852H96.27v8.575h15.726v4.978H90.222zM116.197 31.373V.837h7.345l10.455 16.858c3.197 5.103 3.586 6.776 3.586 6.776h.13L137.627.837h6.048v30.536h-7.388l-10.844-17.359c-2.463-3.932-3.111-6.316-3.111-6.316h-.086v23.676h-6.048zM148.224 31.373v-6.191h6.308v6.191h-6.308zM159.074 31.373V.837h6.048v12.214h14.473V.837h6.048v30.536h-6.048V17.904h-14.473v13.469h-6.048zM188.229 31.373 200.326.837h6.568l12.269 30.536h-6.481l-2.549-7.027h-13.09l-2.549 7.027h-6.265zm10.542-11.879h9.634l-2.808-7.529c-1.944-5.563-1.988-6.567-1.988-6.567h-.085s0 1.004-1.944 6.567l-2.808 7.529zM221.739 31.373V.837h15.164c7.733 0 10.801 3.639 10.801 8.91 0 4.727-3.456 6.986-7.475 7.529v.125c2.592.627 3.759 2.008 4.84 4.727 1.382 3.43 1.598 7.529 3.369 8.993v.251h-6.912c-1.47-1.422-1.815-5.898-2.594-8.617-.777-2.803-2.462-3.137-5.615-3.137h-5.53v11.754h-6.048zm6.048-16.606h8.467c3.543 0 5.186-2.008 5.186-4.601 0-2.844-2.031-4.476-5.186-4.476h-8.467v9.077zM258.133 31.373 246.555.837h6.481s6.264 17.108 6.912 19.2c1.037 3.346 1.513 5.061 1.513 5.061h.087c-.043 0 .431-1.715 1.512-5.061.691-2.092 6.696-19.2 6.696-19.2h6.264l-11.145 30.536h-6.741zM278.496 31.373V.837h21.559v4.852h-15.509v7.278h13.997v4.852h-13.997v8.575h15.725v4.978h-21.775zM315.287 31.792c-8.036 0-12.873-4.225-12.873-10.499h6.912c-.087 3.556 2.332 5.522 5.961 5.522 3.846 0 5.66-1.464 5.66-3.639s-1.555-3.095-7.085-4.559c-5.056-1.339-10.584-2.928-10.584-9.203 0-4.978 4.493-8.993 11.578-8.993 7.3 0 11.966 3.974 11.966 9.579h-6.696c-.043-2.97-2.118-4.601-5.271-4.601-3.068 0-5.099 1.506-5.099 3.514 0 2.384 1.685 3.137 6.093 4.35 6.522 1.757 11.793 2.468 11.793 9.286 0 5.48-5.141 9.244-12.356 9.244zM337.493 31.373V5.815h-9.549V.837h25.101v4.978h-9.504v25.558h-6.048z" style="fill:var(--color1, #fbfbfb)"/>
    </symbol>
    <symbol id="icon-burger" viewBox="0 0 32 32">
      <path fill="none" stroke="#FBFBFB" stroke-linejoin="round" stroke-linecap="round" stroke-miterlimit="4" stroke-width="4.8" d="M3.733 3.2h34.134M3.733 16h17.067M3.733 28.8h34.134"></path>
    </symbol>
    <symbol id="icon-close" viewBox="0 0 32 32">
      <path stroke-linejoin="round" stroke-linecap="round" stroke-miterlimit="4" stroke-width="3" d="M24 8l-16 16"></path>
      <path stroke-linejoin="round" stroke-linecap="round" stroke-miterlimit="4" stroke-width="3" d="M8 8l16 16"></path>
    </symbol>
  </defs>
</svg>

