<svg xmlns="http://www.w3.org/2000/svg" aria-hidden="true" style="position:absolute;width:0;height:0;overflow:hidden">
  <defs>
    <symbol id="logo-icon" viewBox="0 0 32 32">
      <path fill="#fbfbfb" d="M29.082.314h-4.01c-1.237 0-2.24.983-2.24 2.195v3.929c0 1.212 1.003 2.195 2.24 2.195h4.01c1.237 0 2.24-.983 2.24-2.195V2.509c0-1.212-1.003-2.195-2.24-2.195zM6.73 23.04H2.412C1.08 23.04 0 24.023 0 25.235v3.929c0 1.212 1.08 2.195 2.412 2.195H6.73c1.332 0 2.412-.983 2.412-2.195v-3.929c0-1.212-1.08-2.195-2.412-2.195zM6.25 11.582H2.241c-1.237 0-2.24.983-2.24 2.195v3.929c0 1.212 1.003 2.195 2.24 2.195H6.25c1.237 0 2.24-.983 2.24-2.195v-3.929c0-1.212-1.003-2.195-2.24-2.195zM17.766 22.978h-4.009c-1.237 0-2.24.983-2.24 2.195v3.929c0 1.212 1.003 2.196 2.241 2.196h4.009c1.237 0 2.24-.983 2.24-2.196v-3.929c0-1.212-1.003-2.195-2.24-2.195zM6.25.086H2.241c-1.237 0-2.24.983-2.24 2.195V6.21c0 1.212 1.003 2.195 2.24 2.195H6.25c1.237 0 2.24-.983 2.24-2.195V2.281C8.49 1.069 7.487.086 6.25.086zM18.076 11.697h-4.009c-1.237 0-2.24.983-2.24 2.195v3.929c0 1.212 1.003 2.195 2.24 2.195h4.009c1.237 0 2.24-.983 2.24-2.195v-3.929c0-1.212-1.003-2.195-2.24-2.195zM29.333 22.978h-4.009c-1.237 0-2.24.983-2.24 2.195v3.929c0 1.212 1.003 2.196 2.24 2.196h4.009c1.237 0 2.24-.983 2.24-2.196v-3.929c0-1.212-1.003-2.195-2.24-2.195zM17.591.224h-4.009c-1.237 0-2.24.983-2.24 2.195v3.929c0 1.212 1.003 2.195 2.24 2.195h4.009c1.237 0 2.24-.984 2.24-2.196V2.418c0-1.212-1.003-2.195-2.24-2.195zM29.044 11.926h-4.009c-1.237 0-2.24.983-2.24 2.195v3.929c0 1.212 1.003 2.195 2.24 2.195h4.009c1.237 0 2.24-.983 2.24-2.195v-3.929c0-1.212-1.003-2.195-2.24-2.195z" style="fill:var(--color1, #fbfbfb)"/>
    </symbol>
    <symbol id="logo-text" viewBox="0 0 354 32">
      <path fill="#fbfbfb" d="M16.837 31.792c-9.116 0-15.164-6.149-15.164-15.728C1.673 6.694 7.635.42 16.621.42c7.561 0 12.874 4.309 13.652 10.792h-6.264c-.605-3.723-3.499-5.814-7.388-5.814-5.444 0-8.684 4.267-8.684 10.667 0 7.027 3.629 10.75 8.9 10.75 4.58 0 7.517-2.51 7.82-6.275v-.418h-8.425v-4.685h14.257v3.848c-.259 7.488-5.703 12.507-13.652 12.507zM34.266 31.373V.837H49.43c7.733 0 10.801 3.639 10.801 8.91 0 4.727-3.456 6.986-7.474 7.529v.125c2.592.627 3.759 2.008 4.839 4.727 1.382 3.43 1.599 7.529 3.37 8.993v.251h-6.913c-1.469-1.422-1.814-5.898-2.592-8.617-.778-2.803-2.462-3.137-5.616-3.137h-5.53v11.754h-6.048zm6.049-16.606h8.468c3.543 0 5.184-2.008 5.184-4.601 0-2.844-2.03-4.476-5.184-4.476h-8.468v9.077zM64.248 31.373V.837h21.558v4.852h-15.51v7.278h13.998v4.852H70.296v8.575h15.726v4.978H64.248zM90.222 31.373V.837h21.558v4.852H96.27v7.278h13.998v4.852H96.27v8.575h15.726v4.978H90.222zM116.197 31.373V.837h7.345l10.455 16.858c3.197 5.103 3.586 6.776 3.586 6.776h.13L137.627.837h6.048v30.536h-7.388l-10.844-17.359c-2.463-3.932-3.111-6.316-3.111-6.316h-.086v23.676h-6.048zM148.224 31.373v-6.191h6.308v6.191h-6.308zM159.074 31.373V.837h6.048v12.214h14.473V.837h6.048v30.536h-6.048V17.904h-14.473v13.469h-6.048zM188.229 31.373 200.326.837h6.568l12.269 30.536h-6.481l-2.549-7.027h-13.09l-2.549 7.027h-6.265zm10.542-11.879h9.634l-2.808-7.529c-1.944-5.563-1.988-6.567-1.988-6.567h-.085s0 1.004-1.944 6.567l-2.808 7.529zM221.739 31.373V.837h15.164c7.733 0 10.801 3.639 10.801 8.91 0 4.727-3.456 6.986-7.475 7.529v.125c2.592.627 3.759 2.008 4.84 4.727 1.382 3.43 1.598 7.529 3.369 8.993v.251h-6.912c-1.47-1.422-1.815-5.898-2.594-8.617-.777-2.803-2.462-3.137-5.615-3.137h-5.53v11.754h-6.048zm6.048-16.606h8.467c3.543 0 5.186-2.008 5.186-4.601 0-2.844-2.031-4.476-5.186-4.476h-8.467v9.077zM258.133 31.373 246.555.837h6.481s6.264 17.108 6.912 19.2c1.037 3.346 1.513 5.061 1.513 5.061h.087c-.043 0 .431-1.715 1.512-5.061.691-2.092 6.696-19.2 6.696-19.2h6.264l-11.145 30.536h-6.741zM278.496 31.373V.837h21.559v4.852h-15.509v7.278h13.997v4.852h-13.997v8.575h15.725v4.978h-21.775zM315.287 31.792c-8.036 0-12.873-4.225-12.873-10.499h6.912c-.087 3.556 2.332 5.522 5.961 5.522 3.846 0 5.66-1.464 5.66-3.639s-1.555-3.095-7.085-4.559c-5.056-1.339-10.584-2.928-10.584-9.203 0-4.978 4.493-8.993 11.578-8.993 7.3 0 11.966 3.974 11.966 9.579h-6.696c-.043-2.97-2.118-4.601-5.271-4.601-3.068 0-5.099 1.506-5.099 3.514 0 2.384 1.685 3.137 6.093 4.35 6.522 1.757 11.793 2.468 11.793 9.286 0 5.48-5.141 9.244-12.356 9.244zM337.493 31.373V5.815h-9.549V.837h25.101v4.978h-9.504v25.558h-6.048z" style="fill:var(--color1, #fbfbfb)"/>
    </symbol>
  </defs>
</svg>

